<svg width="105" height="105" viewBox="0 0 105 105" fill="none" xmlns="http://www.w3.org/2000/svg">
<path fill-rule="evenodd" clip-rule="evenodd" d="M52.5 105C81.4949 105 105 81.4949 105 52.5C105 23.5051 81.4949 0 52.5 0C23.5051 0 0 23.5051 0 52.5C0 81.4949 23.5051 105 52.5 105ZM100 52.5C100 78.7335 78.7335 100 52.5 100C26.2665 100 5 78.7335 5 52.5C5 26.2665 26.2665 5 52.5 5C78.7335 5 100 26.2665 100 52.5ZM95 52.5C95 75.9721 75.9721 95 52.5 95C29.0279 95 10 75.9721 10 52.5C10 29.0279 29.0279 10 52.5 10C75.9721 10 95 29.0279 95 52.5Z" fill="#C5C5C5"/>
</svg>
