<svg width="105" height="145" viewBox="0 0 105 145" fill="none" xmlns="http://www.w3.org/2000/svg">
<path fill-rule="evenodd" clip-rule="evenodd" d="M10 0C4.47715 0 0 4.47715 0 10V135C0 140.523 4.47715 145 10 145H95C100.523 145 105 140.523 105 135V10C105 4.47715 100.523 0 95 0H10ZM5.8335 17.2499C5.8335 11.727 10.3106 7.24989 15.8335 7.24989H89.1668C94.6897 7.24989 99.1668 11.727 99.1668 17.2499V127.75C99.1668 133.273 94.6897 137.75 89.1668 137.75H15.8335C10.3107 137.75 5.8335 133.273 5.8335 127.75V17.2499ZM11.6665 24.4997C11.6665 18.9768 16.1437 14.4997 21.6665 14.4997H83.3332C88.856 14.4997 93.3332 18.9768 93.3332 24.4997V120.5C93.3332 126.023 88.856 130.5 83.3332 130.5H21.6665C16.1436 130.5 11.6665 126.023 11.6665 120.5V24.4997Z" fill="white"/>
</svg>
