<svg width="82" height="59" viewBox="0 0 82 59" fill="none" xmlns="http://www.w3.org/2000/svg">
<path fill-rule="evenodd" clip-rule="evenodd" d="M2.50385 20.6567L15.3359 20.6562H22.8015L21.8582 19.7129C19.2151 17.0698 19.2151 12.7847 21.8581 10.1421C24.5011 7.49902 28.7862 7.49902 31.4292 10.1421L41.0005 19.7134L50.5714 10.1426C53.2144 7.49951 57.4995 7.49951 60.1424 10.1426C62.7854 12.7852 62.7854 17.0703 60.1424 19.7134L59.1995 20.6562H66.0381L79.4878 20.6567C79.1807 9.21973 62.0648 0 40.9958 0C19.9268 0 2.81091 9.21973 2.50385 20.6567ZM24.0535 21.9082H2.19086C0.980896 21.9082 0 22.8892 0 24.0991C0 25.3091 0.980896 26.29 2.19086 26.29H28.4354L24.0535 21.9082ZM53.5657 26.29L57.9476 21.9082H79.8091C81.0191 21.9082 82 22.8892 82 24.0991C82 25.3091 81.0191 26.29 79.8091 26.29H53.5657ZM29.6873 27.542H5.94659C2.66235 27.542 0 30.2046 0 33.4888C0 36.7729 2.66235 39.4351 5.94653 39.4351H21.3408C21.5002 39.2344 21.6727 39.041 21.8582 38.8555L31.4295 29.2842L29.6873 27.542ZM20.4106 41H2.19086C0.980896 41 0 41.981 0 43.1909C0 44.4009 0.980896 45.3818 2.19086 45.3818H20.1024C19.7194 43.937 19.8221 42.3901 20.4106 41ZM34.4741 45.3818L38.856 41H43.1451L47.5269 45.3818H34.4741ZM20.427 46.3208C20.7564 47.0854 21.2335 47.8022 21.8582 48.4268C24.5011 51.0698 28.7863 51.0698 31.4292 48.4268L33.5352 46.3208H48.4659L50.5714 48.4263C53.2143 51.0693 57.4994 51.0693 60.1424 48.4263C60.767 47.8018 61.2439 47.0854 61.5733 46.3208H76.5229C78.165 46.3208 79.4962 47.6519 79.4962 49.2939C79.4962 54.2202 75.5026 58.2139 70.5764 58.2139H11.4236C6.49738 58.2139 2.50385 54.2202 2.50385 49.2939C2.50385 47.6519 3.83502 46.3208 5.47711 46.3208H20.427ZM61.8979 45.3818H79.8091C81.0191 45.3818 82 44.4009 82 43.1909C82 41.981 81.0191 41 79.8091 41H61.5901C62.1785 42.3901 62.2811 43.937 61.8979 45.3818ZM60.6602 39.4351H76.0534C79.3376 39.4351 82 36.7729 82 33.4888C82 30.2046 79.3376 27.542 76.0535 27.542H52.3138L50.5716 29.2842L60.1424 38.855C60.328 39.0405 60.5006 39.2344 60.6602 39.4351ZM41.5801 39.4351L41.0005 38.8555L40.421 39.4351H41.5801Z" fill="#F7F7F7"/>
</svg>
