<svg width="247" height="136" viewBox="0 0 247 136" fill="none" xmlns="http://www.w3.org/2000/svg">
<path d="M28.8376 104.8C26.6346 104.8 24.5209 104.056 22.4965 102.567C20.234 101.019 19.1027 99.1736 19.1027 97.0302C19.1027 94.2913 20.5019 92.2669 23.3003 90.957C25.3842 89.8853 27.9147 89.3495 30.8917 89.3495C34.226 89.3495 37.9473 89.9746 42.0556 91.225C44.3777 88.6052 46.4913 85.4793 48.3966 81.8473C50.3019 78.2154 52.0286 74.1071 53.5767 69.5225C54.9461 65.4737 56.0178 61.425 56.7918 57.3762C57.6254 53.2679 58.191 49.2192 58.4888 45.2299C47.7715 46.004 39.5251 49.368 33.7497 55.3221C31.4871 57.7632 30.3559 60.3532 30.3559 63.0921C30.3559 67.6172 32.8566 70.9217 37.858 73.0056C38.5129 73.3628 39.7037 73.7201 41.4304 74.0773C41.7876 74.1369 41.9663 74.2559 41.9663 74.4346C41.9663 74.7323 41.7579 74.8811 41.3411 74.8811L41.0732 74.7918C37.6198 74.5536 34.3451 73.0949 31.249 70.4156C27.9147 67.6172 26.2476 64.5211 26.2476 61.1273C26.2476 58.567 27.2895 56.2449 29.3735 54.161C35.5657 47.7902 45.3005 44.3368 58.5781 43.801C58.6376 42.9674 58.6674 42.1636 58.6674 41.3896C58.7269 40.6156 58.7567 39.8415 58.7567 39.0675C58.7567 38.7698 58.7567 38.4423 58.7567 38.0851C58.7567 37.6683 58.7269 37.1622 58.6674 36.5668C58.6078 36.0309 58.5781 35.5546 58.5781 35.1378C58.5781 34.721 58.5781 34.3936 58.5781 34.1554C58.5781 33.7386 58.6971 33.5302 58.9353 33.5302C58.9948 33.5302 59.0842 33.6791 59.2032 33.9768C59.6796 36.5966 59.8582 39.8713 59.7391 43.801L61.436 43.7117C61.7337 43.7117 62.0314 43.7117 62.3291 43.7117C62.6864 43.6521 63.0138 43.6224 63.3115 43.6224C65.2168 43.6224 67.0924 43.7712 68.9381 44.0689C70.8434 44.3071 72.7189 44.6345 74.5647 45.0513C77.899 41.8957 81.4118 40.3179 85.1034 40.3179C87.1277 40.3179 88.8842 41.0621 90.3727 42.5506C91.8017 43.9796 92.5161 45.7658 92.5161 47.9093C92.5161 48.6833 92.3673 49.0703 92.0696 49.0703C91.9505 49.0703 91.7421 48.2665 91.4444 46.6589C91.2063 44.1582 89.3903 42.9079 85.9965 42.9079C83.6744 42.9079 81.2035 43.9796 78.5837 46.1231C82.037 47.1948 85.0438 48.7131 87.6041 50.6779C90.7002 53.1786 92.2482 55.977 92.2482 59.0731C92.2482 62.8837 90.0452 65.9203 85.6392 68.1828C82.3645 69.8499 78.5241 70.8324 74.1181 71.1301C85.7881 76.5482 91.623 82.9786 91.623 90.4212C91.623 93.9341 90.1941 96.8516 87.3361 99.1736C84.4186 101.555 81.1439 102.746 77.5119 102.746C71.9747 102.746 67.1519 102.091 63.0436 100.781C62.8054 100.662 61.5551 100.126 59.2926 99.1736C57.0896 98.2805 53.8744 96.9706 49.647 95.244C46.4913 99.0546 43.4845 101.555 40.6266 102.746C39.1381 103.461 37.4114 103.967 35.4466 104.264C33.4817 104.622 31.2787 104.8 28.8376 104.8ZM47.057 92.9219C49.3791 90.4212 52.0286 86.0152 55.0056 79.7039C56.3751 76.7269 57.7445 73.7796 59.1139 70.8621C60.4834 67.9446 61.8528 65.0272 63.2222 62.1097C65.0084 58.4777 66.7649 55.3518 68.4916 52.732C70.2182 50.0527 71.9151 47.8497 73.5823 46.1231C70.0098 45.4086 66.3779 45.0513 62.6864 45.0513C62.21 45.0513 61.7039 45.0513 61.1681 45.0513C60.6322 45.0513 60.1261 45.0811 59.6498 45.1406C59.4116 49.1298 58.9353 53.1786 58.2208 57.2869C57.5063 61.3356 56.4644 65.4737 55.0949 69.7011C52.1179 78.9299 48.3073 86.2831 43.6632 91.7608L47.057 92.9219ZM76.8868 100.96C84.5079 100.96 88.3185 98.3698 88.3185 93.1898C88.3185 86.164 83.6148 80.3886 74.2074 75.8635C73.612 75.5658 72.8976 75.2681 72.064 74.9704C71.2304 74.6132 70.248 74.1666 69.1167 73.6308C68.9381 73.6308 68.8488 73.3628 68.8488 72.827C68.8488 71.1598 69.6526 70.2072 71.2602 69.969H72.9571C73.493 69.969 73.9991 69.9393 74.4754 69.8797C75.0112 69.7606 75.4876 69.6713 75.9043 69.6118C79.1791 69.0164 81.9179 67.8851 84.1209 66.218C86.6812 64.1341 87.9613 61.6334 87.9613 58.7159C87.9613 55.9175 86.8598 53.4465 84.6568 51.3031C83.7042 50.3504 82.6324 49.5466 81.4416 48.8917C80.2508 48.1772 78.9409 47.5818 77.5119 47.1055C75.8448 48.594 74.1777 50.529 72.5105 52.9107C70.8434 55.2923 69.2358 58.0907 67.6878 61.3059C66.3779 64.1638 65.068 67.0515 63.7581 69.969C62.4482 72.827 61.1383 75.7147 59.8284 78.6322C56.6728 85.5389 53.6064 90.6593 50.6294 93.9936C52.7729 94.7676 54.8866 95.5417 56.9705 96.3157C59.1139 97.1493 61.2872 97.9233 63.4902 98.6378C65.9313 99.4118 68.2534 99.9774 70.4564 100.335C72.7189 100.751 74.8624 100.96 76.8868 100.96ZM29.4628 102.835C32.4398 102.835 35.5657 101.972 38.8404 100.245C42.3533 98.4591 44.854 96.405 46.3425 94.0829C45.8662 93.8448 45.3303 93.6066 44.7349 93.3684C44.199 93.0707 43.6036 92.8028 42.9487 92.5646C38.8404 97.2088 34.4642 99.5309 29.82 99.5309C28.6887 99.5309 28.1231 99.3225 28.1231 98.9057C28.1231 98.608 28.6292 98.4591 29.6414 98.4591C33.5711 98.4591 37.5007 96.3455 41.4304 92.1181C37.6794 90.8082 34.0176 90.1532 30.4452 90.1532C29.2544 90.1532 28.1231 90.2723 27.0514 90.5105C26.0392 90.6891 25.0865 90.957 24.1934 91.3143C21.8118 92.2669 20.621 93.8448 20.621 96.0478C20.621 98.1317 21.6034 99.7988 23.5683 101.049C25.2949 102.24 27.2598 102.835 29.4628 102.835ZM98.6995 95.244C98.0446 95.244 97.7171 95.0653 97.7171 94.7081C97.7171 92.5646 98.5804 89.8258 100.307 86.4915C102.451 82.3237 103.701 79.6146 104.058 78.3642C104.654 76.2208 104.951 73.6903 104.951 70.7728C104.832 71.3682 104.445 72.2613 103.79 73.4521C103.195 74.5834 102.391 76.0124 101.379 77.7391C100.426 79.4062 99.5629 80.8054 98.7888 81.9367C98.0743 83.0084 97.4789 83.8717 97.0026 84.5267C97.0026 84.5862 96.9431 84.616 96.824 84.616C96.5263 84.616 96.3774 84.4969 96.3774 84.2587C96.3774 84.2587 96.5858 83.8717 97.0026 83.0977C97.4789 82.3237 98.1636 81.1924 99.0568 79.7039C101.915 74.7025 103.76 70.5049 104.594 67.1111C104.951 65.563 105.666 64.789 106.737 64.789C107.809 64.789 108.345 66.0393 108.345 68.54C108.345 69.8499 108.166 71.4873 107.809 73.4521C107.452 75.417 106.857 77.6795 106.023 80.2398C105.428 82.2046 104.802 84.1694 104.147 86.1343C103.552 88.0991 102.927 90.0342 102.272 91.9395C104.475 90.2723 106.589 88.367 108.613 86.2236C110.697 84.0801 112.572 81.6092 114.24 78.8108L114.775 77.9177C115.073 75.7742 115.43 74.0178 115.847 72.6483C116.324 71.2789 116.77 70.2965 117.187 69.7011C117.544 69.2843 118.08 69.0759 118.794 69.0759C120.045 69.0759 120.67 69.4034 120.67 70.0583C120.67 71.8445 120.104 73.4819 118.973 74.9704C117.663 79.436 117.008 83.7824 117.008 88.0098C117.008 90.8677 117.901 92.2967 119.688 92.2967C120.581 92.2967 121.623 91.7906 122.813 90.7784C124.004 89.7662 124.57 89.2601 124.51 89.2601C124.689 89.2601 124.778 89.4388 124.778 89.796V89.9746C122.754 92.8326 120.491 94.2615 117.991 94.2615C115.43 94.2615 114.15 92.0585 114.15 87.6525C114.15 86.5808 114.18 85.4198 114.24 84.1694C114.359 82.9191 114.478 81.5496 114.597 80.0611C112.334 84.3481 108.613 88.5159 103.433 92.5646C103.135 92.8028 102.718 93.1303 102.183 93.5471C101.647 93.9638 101.051 94.4104 100.396 94.8867C100.099 95.1249 99.5331 95.244 98.6995 95.244ZM126.911 96.0478C126.494 96.0478 125.958 95.8691 125.303 95.5119C124.648 95.0356 124.321 94.6486 124.321 94.3509C124.499 93.9936 124.648 93.6066 124.767 93.1898C124.946 92.773 125.154 92.3562 125.392 91.9395C126.464 89.6769 127.446 87.4144 128.34 85.1518C129.233 82.8893 129.977 80.6268 130.572 78.3642C131.168 76.2208 131.465 73.6903 131.465 70.7728C131.346 71.3682 130.959 72.2613 130.304 73.4521C129.709 74.5834 128.905 76.0124 127.893 77.7391C126.94 79.4062 126.077 80.8054 125.303 81.9367C124.588 83.0084 123.993 83.8717 123.517 84.5267C123.517 84.5862 123.457 84.616 123.338 84.616C123.04 84.616 122.892 84.4969 122.892 84.2587C122.892 84.1397 122.921 84.0503 122.981 83.9908C123.398 83.3359 123.814 82.6511 124.231 81.9367C124.708 81.2222 125.214 80.4481 125.75 79.6146C127.357 76.9948 128.637 74.643 129.59 72.559C130.543 70.4751 131.227 68.6294 131.644 67.0218C132.001 65.4737 132.597 64.6997 133.43 64.6997C134.383 64.6997 134.859 65.8905 134.859 68.2721C134.859 72.559 133.49 77.8284 130.751 84.0801C133.966 80.0314 136.199 77.352 137.449 76.0422C140.843 72.4102 143.493 70.5942 145.398 70.5942C147.303 70.5942 148.256 71.8445 148.256 74.3452C148.256 76.0719 147.779 77.5902 146.827 78.9001C145.696 80.5672 144.654 81.4008 143.701 81.4008C143.522 81.4008 143.433 81.2817 143.433 81.0436C143.433 81.0436 143.761 80.2993 144.415 78.8108C145.07 77.3223 145.398 76.0422 145.398 74.9704C145.398 73.3628 144.892 72.559 143.88 72.559C142.51 72.559 140.188 74.375 136.913 78.007C134.294 80.984 132.388 83.5145 131.197 85.5984C131.138 85.777 130.87 86.4915 130.394 87.7419C129.917 88.9922 129.203 90.838 128.25 93.2791C128.131 93.6364 127.982 94.0532 127.804 94.5295C127.685 94.9463 127.536 95.3928 127.357 95.8691C127.238 95.9882 127.089 96.0478 126.911 96.0478ZM133.814 135.434C122.799 135.434 117.291 132.129 117.291 125.52C117.291 125.104 117.321 124.687 117.381 124.27C117.381 123.913 117.411 123.526 117.47 123.109C117.649 121.978 118.155 120.727 118.988 119.358C119.822 117.988 120.923 116.5 122.293 114.892C131.462 104.175 144.948 98.608 162.751 98.1912L159.803 90.7784C156.886 93.2791 154.236 94.5295 151.855 94.5295C149.711 94.5295 148.64 93.3684 148.64 91.0464C148.64 86.6999 151.081 81.8771 155.963 76.578C155.904 76.0422 155.844 75.5361 155.784 75.0597C155.784 74.5239 155.784 74.0178 155.784 73.5415C155.784 69.9095 156.469 66.7836 157.839 64.1638C159.565 60.8296 162.066 59.1624 165.341 59.1624C165.698 59.1624 166.025 59.1922 166.323 59.2517C166.68 59.2517 167.008 59.2815 167.306 59.341C168.675 59.6387 169.717 60.7402 170.431 62.6455C171.086 64.4318 171.324 66.0393 171.146 67.4683C174.718 65.3249 176.505 62.7349 176.505 59.6983C176.505 58.6266 176.624 58.0907 176.862 58.0907C177.457 58.0907 177.755 59.1327 177.755 61.2166C177.755 65.2058 175.492 68.2721 170.967 70.4156C170.61 73.5117 169.509 76.9055 167.663 80.597C165.698 84.5862 163.614 87.4739 161.411 89.2601C162.006 90.2128 162.691 91.4334 163.465 92.9219C164.299 94.4104 165.251 96.1668 166.323 98.1912C171.086 98.2508 174.748 98.5187 177.308 98.995C178.261 99.1736 178.737 99.4118 178.737 99.7095C178.737 100.126 178.261 100.335 177.308 100.335C176.237 100.335 174.569 100.245 172.307 100.067C171.176 99.9477 170.163 99.8584 169.27 99.7988C168.437 99.7393 167.722 99.7095 167.127 99.7095C169.151 103.758 170.163 107.271 170.163 110.248C170.163 117.333 165.698 123.466 156.767 128.646C149.027 133.171 141.376 135.434 133.814 135.434ZM157.303 75.5956C157.898 75.0002 158.583 74.4048 159.357 73.8094C160.19 73.214 161.113 72.6186 162.125 72.0232C163.019 71.4873 163.912 70.9812 164.805 70.5049C165.698 69.969 166.561 69.4629 167.395 68.9866C167.454 68.5103 167.484 68.034 167.484 67.5576C167.544 67.0813 167.573 66.6348 167.573 66.218C167.573 62.7051 166.74 60.9486 165.073 60.9486C163.644 60.9486 162.185 62.0501 160.697 64.2531C159.506 65.9798 158.642 67.7065 158.107 69.4332C157.511 71.1598 157.213 72.8865 157.213 74.6132C157.213 75.0895 157.243 75.417 157.303 75.5956ZM160.697 87.7419C161.411 87.0869 162.125 86.1343 162.84 84.8839C163.614 83.574 164.358 81.9962 165.073 80.1504C165.787 78.3642 166.293 76.7566 166.591 75.3277C166.948 73.8987 167.127 72.6483 167.127 71.5766C162.78 73.601 159.535 75.5956 157.392 77.5604C157.63 79.1085 158.017 80.7459 158.553 82.4725C159.148 84.1397 159.863 85.8961 160.697 87.7419ZM152.837 91.4929C155.04 91.4929 157.154 90.6891 159.178 89.0815C158.166 86.5808 157.541 84.9435 157.303 84.1694C157.005 83.1572 156.767 82.2344 156.588 81.4008C156.41 80.5672 156.261 79.7634 156.142 78.9894C152.807 83.3954 151.14 86.6999 151.14 88.9029C151.14 90.6296 151.706 91.4929 152.837 91.4929ZM133.725 134.094C140.215 134.094 147.062 131.504 154.266 126.324C162.006 120.787 165.877 114.922 165.877 108.73C165.877 106.884 165.043 103.907 163.376 99.7988C158.672 100.037 154.266 100.573 150.158 101.406C146.109 102.3 142.328 103.49 138.815 104.979C129.884 108.789 124.02 114.386 121.221 121.769C120.804 122.781 120.596 123.794 120.596 124.806C120.596 127.723 122.114 130.075 125.151 131.861C127.711 133.35 130.569 134.094 133.725 134.094ZM185.812 96.5836C181.585 96.5836 179.471 93.8448 179.471 88.367C179.471 87.5335 179.501 86.6404 179.561 85.6877C179.68 84.6755 179.858 83.6038 180.096 82.4725C179.858 82.2939 179.62 82.0557 179.382 81.758C179.144 81.4008 178.906 80.984 178.668 80.5077C178.906 80.5672 179.144 80.6863 179.382 80.8649C179.68 80.984 180.037 81.1031 180.454 81.2222C181.109 78.2452 182.895 75.2979 185.812 72.3804C188.968 69.1652 191.945 67.5576 194.743 67.5576C195.398 67.5576 195.726 67.6469 195.726 67.8256C195.726 67.9446 195.309 68.2423 194.476 68.7187C192.273 69.9095 190.218 71.7552 188.313 74.2559C186.289 76.7566 184.83 79.2573 183.937 81.758C183.996 81.8176 184.026 81.8473 184.026 81.8473C184.026 81.8473 184.056 81.8771 184.115 81.9367C186.973 81.9367 189.95 80.5672 193.047 77.8284C196.143 75.0895 197.691 72.2911 197.691 69.4332C197.691 68.5996 197.453 67.7958 196.976 67.0218C196.559 66.3073 195.904 65.95 195.011 65.95C193.88 65.95 192.54 66.3966 190.992 67.2897C189.504 68.2423 188.67 68.7187 188.492 68.7187C188.373 68.7187 188.313 68.6889 188.313 68.6294C188.313 67.9149 189.355 67.1408 191.439 66.3073C193.225 65.5928 194.624 65.2356 195.637 65.2356C197.066 65.2356 198.197 65.6226 199.03 66.3966C199.983 67.1706 200.459 68.2423 200.459 69.6118C200.459 72.7674 198.405 75.8338 194.297 78.8108C190.605 81.4306 187.033 82.8893 183.58 83.187C183.103 84.616 182.865 85.9854 182.865 87.2953C182.865 92.2372 184.651 94.7081 188.224 94.7081C190.963 94.7081 193.821 93.5173 196.798 91.1357C199.298 89.1708 201.382 86.7892 203.049 83.9908C203.585 83.1572 204.032 82.7405 204.389 82.7405C204.449 82.7405 204.478 82.8 204.478 82.9191C204.478 83.1572 204.24 83.6931 203.764 84.5267C201.918 87.4442 199.328 90.1235 195.994 92.5646C192.362 95.244 188.968 96.5836 185.812 96.5836ZM207.151 96.0478C206.734 96.0478 206.198 95.8691 205.543 95.5119C204.888 95.0356 204.561 94.6486 204.561 94.3509C204.739 93.9936 204.888 93.6066 205.007 93.1898C205.186 92.773 205.394 92.3562 205.632 91.9395C206.704 89.6769 207.687 87.4144 208.58 85.1518C209.473 82.8893 210.217 80.6268 210.812 78.3642C211.408 76.2208 211.706 73.6903 211.706 70.7728C211.586 71.3682 211.199 72.2613 210.544 73.4521C209.949 74.5834 209.145 76.0124 208.133 77.7391C207.18 79.4062 206.317 80.8054 205.543 81.9367C204.829 83.0084 204.233 83.8717 203.757 84.5267C203.757 84.5862 203.697 84.616 203.578 84.616C203.281 84.616 203.132 84.4969 203.132 84.2587C203.132 84.1397 203.161 84.0503 203.221 83.9908C203.638 83.3359 204.055 82.6511 204.471 81.9367C204.948 81.2222 205.454 80.4481 205.99 79.6146C207.597 76.9948 208.877 74.643 209.83 72.559C210.783 70.4751 211.467 68.6294 211.884 67.0218C212.241 65.4737 212.837 64.6997 213.67 64.6997C214.623 64.6997 215.099 65.8905 215.099 68.2721C215.099 72.559 213.73 77.8284 210.991 84.0801C214.206 80.0314 216.439 77.352 217.689 76.0422C221.083 72.4102 223.733 70.5942 225.638 70.5942C227.543 70.5942 228.496 71.8445 228.496 74.3452C228.496 76.0719 228.02 77.5902 227.067 78.9001C225.936 80.5672 224.894 81.4008 223.941 81.4008C223.762 81.4008 223.673 81.2817 223.673 81.0436C223.673 81.0436 224.001 80.2993 224.656 78.8108C225.311 77.3223 225.638 76.0422 225.638 74.9704C225.638 73.3628 225.132 72.559 224.12 72.559C222.75 72.559 220.428 74.375 217.153 78.007C214.534 80.984 212.628 83.5145 211.438 85.5984C211.378 85.777 211.11 86.4915 210.634 87.7419C210.157 88.9922 209.443 90.838 208.49 93.2791C208.371 93.6364 208.222 94.0532 208.044 94.5295C207.925 94.9463 207.776 95.3928 207.597 95.8691C207.478 95.9882 207.329 96.0478 207.151 96.0478Z" fill="white"/>
<path d="M112.177 41.7211C108.972 40.0422 105.92 39.2027 103.02 39.2027C100.12 39.2027 97.7648 39.955 95.955 41.4595C94.1452 42.9422 93.2404 44.6865 93.2404 46.6925C93.2404 48.6985 94.1234 50.4211 95.8896 51.8602C97.6775 53.2775 100.011 53.9861 102.889 53.9861C105.789 53.9861 108.231 53.6481 110.215 52.9722C112.221 52.2963 113.878 51.3587 115.186 50.1594C116.517 48.9384 117.661 47.532 118.621 45.9403C119.602 44.3486 120.409 42.6042 121.041 40.7072C121.695 38.8102 122.284 36.8806 122.807 34.9182C123.33 32.934 123.865 30.9171 124.41 28.8675C124.977 26.796 125.576 24.8445 126.209 23.013C127.626 18.8919 129.654 15.6867 132.292 13.3972C128.106 12.3288 123.701 11.7946 119.079 11.7946C116.462 11.7946 113.998 12.5142 111.687 13.9533C109.376 15.3705 107.522 17.2893 106.127 19.7096C104.753 22.1299 104.066 24.8009 104.066 27.7227C104.066 30.6445 104.884 33.1084 106.519 35.1144C108.176 37.1204 110.531 38.8866 113.584 40.4129L113.126 42.0809L112.177 41.7211ZM93.4693 53.888C91.9212 53.212 90.6565 52.2526 89.6753 51.0098C88.6941 49.7451 88.2035 48.3061 88.2035 46.6925C88.2035 45.0572 88.6069 43.5963 89.4137 42.3099C90.2204 41.0234 91.2671 40.0095 92.5535 39.2681C95.2355 37.7418 98.1572 36.9787 101.319 36.9787C102.954 36.9787 104.459 37.2076 105.832 37.6655C102.867 33.937 101.384 30.5137 101.384 27.3957C101.384 22.8821 102.965 18.9247 106.127 15.5232C109.201 12.2307 112.832 9.97396 117.018 8.75291C119.133 8.14239 121.204 7.83713 123.232 7.83713C125.26 7.83713 128.193 8.27321 132.03 9.14539C135.868 10.0176 138.408 10.4537 139.651 10.4537C140.894 10.4537 141.766 10.3119 142.268 10.0285C142.943 9.65779 143.739 8.94915 144.655 7.90254H147.141C146.857 9.07998 146.28 10.0939 145.407 10.9443C144.535 11.7946 143.532 12.416 142.398 12.8085C140.283 13.5281 138.277 13.8878 136.38 13.8878C133.655 13.8878 131.823 17.1585 130.886 23.6998C130.646 25.4224 130.406 27.8754 130.166 31.0588C129.926 34.2422 129.37 37.0659 128.498 39.5298C127.648 41.9937 126.547 44.0978 125.195 45.8422C123.865 47.5865 122.349 49.1237 120.648 50.4538C118.97 51.762 117.138 52.8087 115.154 53.5936C111.294 55.1199 107.206 55.8831 102.889 55.8831C99.6181 55.8831 96.4783 55.218 93.4693 53.888ZM140.436 55.5233C139.52 55.5233 138.801 55.2398 138.277 54.6729C137.754 54.106 137.492 53.332 137.492 52.3508C137.492 51.3478 137.743 49.9959 138.245 48.2952C138.768 46.5726 139.28 45.0136 139.782 43.6181C140.305 42.2226 140.567 41.2959 140.567 40.8381C140.567 40.3584 140.414 40.1185 140.109 40.1185C139.346 40.1185 138.114 41.623 136.413 44.632L134.222 43.3565C137.427 37.949 140.371 35.2452 143.052 35.2452C144.884 35.2452 145.8 36.4009 145.8 38.7121C145.8 39.3881 145.582 40.4674 145.146 41.9501L142.791 48.6876C142.551 49.32 142.431 49.8978 142.431 50.4211C142.431 50.9226 142.627 51.1733 143.02 51.1733C143.761 51.1733 145.124 49.7997 147.108 47.0523L148.482 48.3279C147.304 50.5083 145.898 52.2526 144.263 53.5609C142.649 54.8692 141.374 55.5233 140.436 55.5233ZM149.757 25.5968C149.757 26.469 149.463 27.2648 148.874 27.9844C148.286 28.7039 147.49 29.0637 146.487 29.0637C145.484 29.0637 144.731 28.7693 144.23 28.1806C143.728 27.5701 143.478 26.8069 143.478 25.8912C143.478 24.9754 143.783 24.1686 144.393 23.4709C145.026 22.7513 145.833 22.3915 146.814 22.3915C147.795 22.3915 148.525 22.7077 149.005 23.34C149.507 23.9506 149.757 24.7028 149.757 25.5968ZM154.892 35.9648C157.138 28.9874 159.428 23.1438 161.761 18.4341L165.816 18.7611C165.576 19.4589 164.988 21.1378 164.05 23.7979C162.022 29.6633 160.714 33.7189 160.125 35.9648H165.26L164.737 38.1234H159.438C157.432 44.3159 156.429 48.088 156.429 49.4399C156.429 50.77 156.56 51.435 156.822 51.435C157.105 51.435 157.356 51.3805 157.574 51.2715C158.163 50.9444 159.428 49.3527 161.368 46.4963L162.709 47.7064C161.248 50.3666 159.744 52.3399 158.196 53.6263C156.647 54.891 155.372 55.5233 154.369 55.5233C153.366 55.5233 152.603 55.1744 152.079 54.4767C151.578 53.779 151.327 52.885 151.327 51.7948C151.327 49.0256 152.298 44.4685 154.238 38.1234H150.804L151.327 35.9648H154.892ZM170.984 55.5233C170.068 55.5233 169.349 55.2398 168.825 54.6729C168.302 54.106 168.04 53.332 168.04 52.3508C168.04 51.3478 168.291 49.9959 168.793 48.2952C169.316 46.5726 169.828 45.0136 170.33 43.6181C170.853 42.2226 171.115 41.2959 171.115 40.8381C171.115 40.3584 170.962 40.1185 170.657 40.1185C169.894 40.1185 168.662 41.623 166.961 44.632L164.77 43.3565C167.975 37.949 170.918 35.2452 173.6 35.2452C175.432 35.2452 176.348 36.4009 176.348 38.7121C176.348 39.3881 176.13 40.4674 175.694 41.9501L173.339 48.6876C173.099 49.32 172.979 49.8978 172.979 50.4211C172.979 50.9226 173.175 51.1733 173.568 51.1733C174.309 51.1733 175.672 49.7997 177.656 47.0523L179.03 48.3279C177.852 50.5083 176.446 52.2526 174.811 53.5609C173.197 54.8692 171.921 55.5233 170.984 55.5233ZM180.305 25.5968C180.305 26.469 180.011 27.2648 179.422 27.9844C178.833 28.7039 178.038 29.0637 177.035 29.0637C176.032 29.0637 175.279 28.7693 174.778 28.1806C174.276 27.5701 174.026 26.8069 174.026 25.8912C174.026 24.9754 174.331 24.1686 174.941 23.4709C175.574 22.7513 176.38 22.3915 177.362 22.3915C178.343 22.3915 179.073 22.7077 179.553 23.34C180.054 23.9506 180.305 24.7028 180.305 25.5968Z" fill="white"/>
<path fill-rule="evenodd" clip-rule="evenodd" d="M227.948 32.9052H183.238C183.416 26.2629 193.356 20.9082 205.593 20.9082C217.829 20.9082 227.77 26.2629 227.948 32.9052Z" fill="#DBDBDB"/>
<rect x="181.783" y="33.6318" width="47.6238" height="2.54478" rx="1.27239" fill="#DBDBDB"/>
<rect x="209.049" y="31.0874" width="11.9968" height="1.8177" rx="0.908851" fill="#DBDBDB"/>
<rect x="198.87" y="29.9966" width="11.9968" height="1.8177" rx="0.908851" fill="#DBDBDB"/>
<rect x="189.781" y="31.0874" width="11.9968" height="1.8177" rx="0.908851" fill="#DBDBDB"/>
<rect x="181.783" y="44.7197" width="47.6238" height="2.54478" rx="1.27239" fill="#DBDBDB"/>
<path d="M183.238 49.5369C183.238 48.5832 184.011 47.8101 184.964 47.8101H226.226C227.18 47.8101 227.953 48.5832 227.953 49.5369C227.953 52.398 225.634 54.7173 222.773 54.7173H188.418C185.557 54.7173 183.238 52.398 183.238 49.5369Z" fill="#DBDBDB"/>
<path fill-rule="evenodd" clip-rule="evenodd" d="M188.349 36.9038H185.237C183.33 36.9038 181.783 38.4501 181.783 40.3574C181.783 42.2648 183.33 43.8111 185.237 43.8111H225.954C227.861 43.8111 229.407 42.2648 229.407 40.3574C229.407 38.4501 227.861 36.9038 225.954 36.9038H206.257L189.252 42.5063L188.349 36.9038Z" fill="#DBDBDB"/>
<rect x="206.757" y="30.9268" width="18.0041" height="1.74233" rx="0.871167" fill="#DBDBDB"/>
<rect x="185.268" y="29.0391" width="18.0041" height="1.74233" rx="0.871167" fill="#DBDBDB"/>
<ellipse cx="194.561" cy="27.0062" rx="0.580778" ry="0.290389" fill="#DBDBDB"/>
<ellipse cx="198.045" cy="27.0062" rx="0.580778" ry="0.290389" fill="#DBDBDB"/>
<ellipse cx="198.626" cy="24.683" rx="0.580778" ry="0.290389" fill="#DBDBDB"/>
<ellipse cx="200.368" cy="26.4252" rx="0.580778" ry="0.290389" fill="#DBDBDB"/>
<ellipse cx="202.691" cy="25.264" rx="0.580778" ry="0.290389" fill="#DBDBDB"/>
<ellipse cx="204.434" cy="27.5868" rx="0.580778" ry="0.290389" fill="#DBDBDB"/>
<ellipse cx="205.595" cy="25.264" rx="0.580778" ry="0.290389" fill="#DBDBDB"/>
<ellipse cx="207.918" cy="27.0062" rx="0.580778" ry="0.290389" fill="#DBDBDB"/>
<ellipse cx="209.661" cy="23.5213" rx="0.580778" ry="0.290389" fill="#DBDBDB"/>
<ellipse cx="211.984" cy="27.0062" rx="0.580778" ry="0.290389" fill="#DBDBDB"/>
<ellipse cx="213.145" cy="24.683" rx="0.580778" ry="0.290389" fill="#DBDBDB"/>
<ellipse cx="215.469" cy="27.0062" rx="0.580778" ry="0.290389" fill="#DBDBDB"/>
<ellipse cx="216.63" cy="24.683" rx="0.580778" ry="0.290389" fill="#DBDBDB"/>
<ellipse cx="217.792" cy="28.1678" rx="0.580778" ry="0.290389" fill="#DBDBDB"/>
<ellipse cx="209.661" cy="28.1678" rx="0.580778" ry="0.290389" fill="#DBDBDB"/>
<ellipse cx="200.368" cy="29.91" rx="0.580778" ry="0.290389" fill="#DBDBDB"/>
<ellipse cx="204.434" cy="23.5213" rx="0.580778" ry="0.290389" fill="#DBDBDB"/>
</svg>
