<svg width="105" height="105" viewBox="0 0 105 105" fill="none" xmlns="http://www.w3.org/2000/svg">
<path fill-rule="evenodd" clip-rule="evenodd" d="M10 0C4.47715 0 0 4.47715 0 10V95C0 100.523 4.47715 105 10 105H95C100.523 105 105 100.523 105 95V10C105 4.47715 100.523 0 95 0H10ZM5.8335 15.2499C5.8335 9.72706 10.3106 5.24991 15.8335 5.24991H89.1668C94.6897 5.24991 99.1668 9.72706 99.1668 15.2499V89.7499C99.1668 95.2728 94.6897 99.7499 89.1668 99.7499H15.8335C10.3107 99.7499 5.8335 95.2728 5.8335 89.7499V15.2499ZM11.6665 20.4997C11.6665 14.9769 16.1437 10.4997 21.6665 10.4997H83.3332C88.856 10.4997 93.3332 14.9769 93.3332 20.4997V84.4997C93.3332 90.0226 88.856 94.4997 83.3332 94.4997H21.6665C16.1436 94.4997 11.6665 90.0226 11.6665 84.4997V20.4997Z" fill="white"/>
</svg>
