<svg width="82" height="59" viewBox="0 0 82 59" fill="none" xmlns="http://www.w3.org/2000/svg">
<path fill-rule="evenodd" clip-rule="evenodd" d="M79.4878 20.6566H2.50385C2.81096 9.21972 19.9268 0 40.9958 0C62.0649 0 79.1807 9.21972 79.4878 20.6566Z" fill="#F7F7F7"/>
<rect y="21.9082" width="82" height="4.38168" rx="2.19084" fill="#F7F7F7"/>
<rect x="46.9465" y="17.5269" width="20.6565" height="3.12977" rx="1.56489" fill="#F7F7F7"/>
<rect x="29.4199" y="15.6489" width="20.6565" height="3.12977" rx="1.56489" fill="#F7F7F7"/>
<rect x="13.771" y="17.5269" width="20.6565" height="3.12977" rx="1.56489" fill="#F7F7F7"/>
<rect y="41" width="82" height="4.38168" rx="2.19084" fill="#F7F7F7"/>
<path d="M2.50385 49.2941C2.50385 47.652 3.83503 46.3208 5.47713 46.3208H76.5229C78.165 46.3208 79.4962 47.652 79.4962 49.2941V49.2941C79.4962 54.2204 75.5027 58.2139 70.5764 58.2139H11.4237C6.49739 58.2139 2.50385 54.2204 2.50385 49.2941V49.2941Z" fill="#F7F7F7"/>
<path fill-rule="evenodd" clip-rule="evenodd" d="M11.305 27.542H5.94656C2.66237 27.542 0 30.2044 0 33.4886C0 36.7728 2.66237 39.4351 5.94656 39.4351H76.0534C79.3376 39.4351 82 36.7728 82 33.4886C82 30.2044 79.3376 27.542 76.0534 27.542H42.1393L12.8589 37.1883L11.305 27.542Z" fill="#F7F7F7"/>
<rect x="43" y="17.2505" width="31" height="3" rx="1.5" fill="#F7F7F7"/>
<rect x="6" y="14" width="31" height="3" rx="1.5" fill="#F7F7F7"/>
<ellipse cx="22" cy="10.5" rx="1" ry="0.5" fill="#F7F7F7"/>
<ellipse cx="28" cy="10.5" rx="1" ry="0.5" fill="#F7F7F7"/>
<ellipse cx="29" cy="6.5" rx="1" ry="0.5" fill="#F7F7F7"/>
<ellipse cx="32" cy="9.5" rx="1" ry="0.5" fill="#F7F7F7"/>
<ellipse cx="36" cy="7.5" rx="1" ry="0.5" fill="#F7F7F7"/>
<ellipse cx="39" cy="11.5" rx="1" ry="0.5" fill="#F7F7F7"/>
<ellipse cx="41" cy="7.5" rx="1" ry="0.5" fill="#F7F7F7"/>
<ellipse cx="45" cy="10.5" rx="1" ry="0.5" fill="#F7F7F7"/>
<ellipse cx="48" cy="4.5" rx="1" ry="0.5" fill="#F7F7F7"/>
<ellipse cx="52" cy="10.5" rx="1" ry="0.5" fill="#F7F7F7"/>
<ellipse cx="54" cy="6.5" rx="1" ry="0.5" fill="#F7F7F7"/>
<ellipse cx="58" cy="10.5" rx="1" ry="0.5" fill="#F7F7F7"/>
<ellipse cx="60" cy="6.5" rx="1" ry="0.5" fill="#F7F7F7"/>
<ellipse cx="62" cy="12.5" rx="1" ry="0.5" fill="#F7F7F7"/>
<ellipse cx="48" cy="12.5" rx="1" ry="0.5" fill="#F7F7F7"/>
<ellipse cx="32" cy="15.5" rx="1" ry="0.5" fill="#F7F7F7"/>
<ellipse cx="39" cy="4.5" rx="1" ry="0.5" fill="#F7F7F7"/>
</svg>
